<svg width="286" height="72" viewBox="0 0 286 72" fill="none" xmlns="http://www.w3.org/2000/svg">
<rect x="179.5" y="0.5" width="88" height="17" rx="3.5" stroke="#15E3B5"/>
<path d="M188.866 13L188.153 11.0176H185.424L184.726 13H183.495L186.166 5.83203H187.436L190.106 13H188.866ZM187.846 10.0117L187.177 8.06836C187.128 7.93815 187.06 7.73307 186.972 7.45312C186.887 7.17318 186.828 6.9681 186.796 6.83789C186.708 7.23828 186.579 7.67611 186.41 8.15137L185.766 10.0117H187.846ZM192.157 13L190.106 7.59961H191.317L192.416 10.7393C192.605 11.2666 192.719 11.693 192.758 12.0186H192.797C192.826 11.7842 192.94 11.3577 193.139 10.7393L194.237 7.59961H195.458L193.397 13H192.157ZM200.839 7.59961V8.22949L199.916 8.40039C200.001 8.51432 200.071 8.6543 200.126 8.82031C200.181 8.98633 200.209 9.16211 200.209 9.34766C200.209 9.9043 200.017 10.3421 199.633 10.6611C199.249 10.9801 198.72 11.1396 198.046 11.1396C197.873 11.1396 197.717 11.1266 197.577 11.1006C197.33 11.2536 197.206 11.4326 197.206 11.6377C197.206 11.7614 197.263 11.8542 197.377 11.916C197.494 11.9779 197.707 12.0088 198.017 12.0088H198.959C199.555 12.0088 200.007 12.1357 200.316 12.3896C200.626 12.6436 200.78 13.0098 200.78 13.4883C200.78 14.1003 200.528 14.5723 200.023 14.9043C199.519 15.2363 198.79 15.4023 197.836 15.4023C197.1 15.4023 196.539 15.2721 196.151 15.0117C195.764 14.7513 195.57 14.3802 195.57 13.8984C195.57 13.5664 195.674 13.2865 195.883 13.0586C196.094 12.834 196.389 12.6777 196.767 12.5898C196.614 12.5247 196.487 12.4206 196.386 12.2773C196.288 12.1309 196.239 11.9779 196.239 11.8184C196.239 11.6165 196.296 11.4456 196.41 11.3057C196.524 11.1657 196.693 11.0273 196.918 10.8906C196.638 10.7702 196.41 10.5749 196.234 10.3047C196.062 10.0312 195.976 9.71224 195.976 9.34766C195.976 8.76172 196.16 8.30762 196.527 7.98535C196.898 7.66309 197.426 7.50195 198.109 7.50195C198.262 7.50195 198.422 7.51335 198.588 7.53613C198.757 7.55566 198.884 7.57682 198.969 7.59961H200.839ZM196.596 13.8398C196.596 14.0872 196.706 14.2777 196.928 14.4111C197.152 14.5446 197.466 14.6113 197.87 14.6113C198.495 14.6113 198.961 14.5218 199.267 14.3428C199.573 14.1637 199.726 13.9261 199.726 13.6299C199.726 13.3955 199.641 13.2279 199.472 13.127C199.306 13.0293 198.995 12.9805 198.539 12.9805H197.67C197.341 12.9805 197.079 13.057 196.884 13.21C196.692 13.3662 196.596 13.5762 196.596 13.8398ZM197.089 9.34766C197.089 9.6862 197.175 9.94661 197.348 10.1289C197.523 10.3112 197.774 10.4023 198.1 10.4023C198.764 10.4023 199.096 10.0475 199.096 9.33789C199.096 8.98633 199.013 8.71615 198.847 8.52734C198.684 8.33529 198.435 8.23926 198.1 8.23926C197.768 8.23926 197.515 8.33366 197.343 8.52246C197.174 8.71126 197.089 8.98633 197.089 9.34766ZM207.431 13H206.283V8.39062C206.283 7.84049 206.296 7.4043 206.322 7.08203C206.247 7.16016 206.155 7.24642 206.044 7.34082C205.937 7.43522 205.572 7.7347 204.95 8.23926L204.374 7.51172L206.474 5.86133H207.431V13ZM212.196 8.54199C212.916 8.54199 213.485 8.73242 213.905 9.11328C214.325 9.49414 214.535 10.0133 214.535 10.6709C214.535 11.4326 214.296 12.0283 213.817 12.458C213.342 12.8844 212.665 13.0977 211.786 13.0977C210.989 13.0977 210.362 12.9691 209.906 12.7119V11.6719C210.17 11.8216 210.473 11.9372 210.814 12.0186C211.156 12.0999 211.474 12.1406 211.767 12.1406C212.284 12.1406 212.678 12.0251 212.948 11.7939C213.218 11.5628 213.354 11.2243 213.354 10.7783C213.354 9.92546 212.81 9.49902 211.723 9.49902C211.57 9.49902 211.381 9.5153 211.156 9.54785C210.932 9.57715 210.735 9.61133 210.565 9.65039L210.053 9.34766L210.326 5.86133H214.037V6.88184H211.337L211.176 8.64941C211.29 8.62988 211.428 8.6071 211.591 8.58105C211.757 8.55501 211.959 8.54199 212.196 8.54199ZM220.58 11.4424H219.618V13H218.5V11.4424H215.238V10.5586L218.5 5.8418H219.618V10.4902H220.58V11.4424ZM218.5 10.4902V8.69824C218.5 8.06022 218.516 7.53776 218.549 7.13086H218.51C218.419 7.3457 218.275 7.60612 218.08 7.91211L216.308 10.4902H218.5ZM221.41 12.3896C221.41 12.152 221.472 11.9697 221.596 11.8428C221.719 11.7158 221.898 11.6523 222.133 11.6523C222.37 11.6523 222.551 11.7191 222.675 11.8525C222.799 11.9827 222.86 12.1618 222.86 12.3896C222.86 12.6208 222.797 12.8047 222.67 12.9414C222.546 13.0749 222.367 13.1416 222.133 13.1416C221.898 13.1416 221.719 13.0749 221.596 12.9414C221.472 12.8079 221.41 12.624 221.41 12.3896ZM224.765 13L227.587 6.88184H223.876V5.87109H228.812V6.67188L226.005 13H224.765ZM232.079 5.76855C232.756 5.76855 233.292 5.9248 233.686 6.2373C234.079 6.54655 234.276 6.96159 234.276 7.48242C234.276 8.21484 233.837 8.79753 232.958 9.23047C233.518 9.51042 233.915 9.80501 234.149 10.1143C234.387 10.4235 234.506 10.7686 234.506 11.1494C234.506 11.7386 234.289 12.2106 233.856 12.5654C233.424 12.9202 232.838 13.0977 232.099 13.0977C231.324 13.0977 230.723 12.9316 230.297 12.5996C229.87 12.2676 229.657 11.7972 229.657 11.1885C229.657 10.7913 229.768 10.4349 229.989 10.1191C230.214 9.80013 230.58 9.51693 231.088 9.26953C230.652 9.00911 230.341 8.73405 230.155 8.44434C229.97 8.15462 229.877 7.8291 229.877 7.46777C229.877 6.9502 230.08 6.53841 230.487 6.23242C230.894 5.92318 231.425 5.76855 232.079 5.76855ZM230.756 11.1494C230.756 11.488 230.875 11.7516 231.112 11.9404C231.35 12.126 231.672 12.2188 232.079 12.2188C232.499 12.2188 232.825 12.1227 233.056 11.9307C233.29 11.7354 233.407 11.4717 233.407 11.1396C233.407 10.876 233.3 10.6351 233.085 10.417C232.87 10.1989 232.545 9.99707 232.108 9.81152L231.967 9.74805C231.537 9.93685 231.228 10.1452 231.039 10.373C230.85 10.5977 230.756 10.8564 230.756 11.1494ZM232.069 6.65234C231.744 6.65234 231.482 6.73372 231.283 6.89648C231.085 7.05599 230.985 7.27409 230.985 7.55078C230.985 7.72005 231.021 7.87142 231.093 8.00488C231.164 8.13835 231.269 8.26042 231.405 8.37109C231.542 8.47852 231.773 8.60872 232.099 8.76172C232.489 8.58919 232.764 8.40853 232.924 8.21973C233.087 8.02767 233.168 7.80469 233.168 7.55078C233.168 7.27409 233.067 7.05599 232.865 6.89648C232.667 6.73372 232.401 6.65234 232.069 6.65234ZM240.219 9.43066C240.219 10.6709 240.019 11.5921 239.618 12.1943C239.221 12.7965 238.612 13.0977 237.792 13.0977C236.998 13.0977 236.396 12.7868 235.985 12.165C235.575 11.5433 235.37 10.6318 235.37 9.43066C235.37 8.1709 235.569 7.24316 235.966 6.64746C236.366 6.0485 236.975 5.74902 237.792 5.74902C238.59 5.74902 239.193 6.06152 239.604 6.68652C240.014 7.31152 240.219 8.22624 240.219 9.43066ZM236.532 9.43066C236.532 10.404 236.632 11.099 236.83 11.5156C237.032 11.9323 237.353 12.1406 237.792 12.1406C238.231 12.1406 238.552 11.929 238.754 11.5059C238.959 11.0827 239.062 10.391 239.062 9.43066C239.062 8.47363 238.959 7.7819 238.754 7.35547C238.552 6.92578 238.231 6.71094 237.792 6.71094C237.353 6.71094 237.032 6.9209 236.83 7.34082C236.632 7.76074 236.532 8.45736 236.532 9.43066ZM241.903 13L244.726 6.88184H241.015V5.87109H245.951V6.67188L243.144 13H241.903ZM251.645 9.43066C251.645 10.6709 251.444 11.5921 251.044 12.1943C250.647 12.7965 250.038 13.0977 249.218 13.0977C248.424 13.0977 247.821 12.7868 247.411 12.165C247.001 11.5433 246.796 10.6318 246.796 9.43066C246.796 8.1709 246.994 7.24316 247.392 6.64746C247.792 6.0485 248.401 5.74902 249.218 5.74902C250.015 5.74902 250.619 6.06152 251.029 6.68652C251.439 7.31152 251.645 8.22624 251.645 9.43066ZM247.958 9.43066C247.958 10.404 248.057 11.099 248.256 11.5156C248.458 11.9323 248.778 12.1406 249.218 12.1406C249.657 12.1406 249.978 11.929 250.18 11.5059C250.385 11.0827 250.487 10.391 250.487 9.43066C250.487 8.47363 250.385 7.7819 250.18 7.35547C249.978 6.92578 249.657 6.71094 249.218 6.71094C248.778 6.71094 248.458 6.9209 248.256 7.34082C248.057 7.76074 247.958 8.45736 247.958 9.43066ZM254.94 8.54199C255.66 8.54199 256.229 8.73242 256.649 9.11328C257.069 9.49414 257.279 10.0133 257.279 10.6709C257.279 11.4326 257.04 12.0283 256.562 12.458C256.086 12.8844 255.409 13.0977 254.53 13.0977C253.733 13.0977 253.106 12.9691 252.65 12.7119V11.6719C252.914 11.8216 253.217 11.9372 253.559 12.0186C253.9 12.0999 254.218 12.1406 254.511 12.1406C255.028 12.1406 255.422 12.0251 255.692 11.7939C255.963 11.5628 256.098 11.2243 256.098 10.7783C256.098 9.92546 255.554 9.49902 254.467 9.49902C254.314 9.49902 254.125 9.5153 253.9 9.54785C253.676 9.57715 253.479 9.61133 253.31 9.65039L252.797 9.34766L253.07 5.86133H256.781V6.88184H254.081L253.92 8.64941C254.034 8.62988 254.172 8.6071 254.335 8.58105C254.501 8.55501 254.703 8.54199 254.94 8.54199ZM260.644 5.76855C261.321 5.76855 261.856 5.9248 262.25 6.2373C262.644 6.54655 262.841 6.96159 262.841 7.48242C262.841 8.21484 262.401 8.79753 261.522 9.23047C262.082 9.51042 262.479 9.80501 262.714 10.1143C262.951 10.4235 263.07 10.7686 263.07 11.1494C263.07 11.7386 262.854 12.2106 262.421 12.5654C261.988 12.9202 261.402 13.0977 260.663 13.0977C259.888 13.0977 259.288 12.9316 258.861 12.5996C258.435 12.2676 258.222 11.7972 258.222 11.1885C258.222 10.7913 258.332 10.4349 258.554 10.1191C258.778 9.80013 259.145 9.51693 259.652 9.26953C259.216 9.00911 258.905 8.73405 258.72 8.44434C258.534 8.15462 258.441 7.8291 258.441 7.46777C258.441 6.9502 258.645 6.53841 259.052 6.23242C259.459 5.92318 259.989 5.76855 260.644 5.76855ZM259.32 11.1494C259.32 11.488 259.439 11.7516 259.677 11.9404C259.914 12.126 260.237 12.2188 260.644 12.2188C261.063 12.2188 261.389 12.1227 261.62 11.9307C261.854 11.7354 261.972 11.4717 261.972 11.1396C261.972 10.876 261.864 10.6351 261.649 10.417C261.435 10.1989 261.109 9.99707 260.673 9.81152L260.531 9.74805C260.102 9.93685 259.792 10.1452 259.604 10.373C259.415 10.5977 259.32 10.8564 259.32 11.1494ZM260.634 6.65234C260.308 6.65234 260.046 6.73372 259.848 6.89648C259.649 7.05599 259.55 7.27409 259.55 7.55078C259.55 7.72005 259.586 7.87142 259.657 8.00488C259.729 8.13835 259.833 8.26042 259.97 8.37109C260.106 8.47852 260.338 8.60872 260.663 8.76172C261.054 8.58919 261.329 8.40853 261.488 8.21973C261.651 8.02767 261.732 7.80469 261.732 7.55078C261.732 7.27409 261.632 7.05599 261.43 6.89648C261.231 6.73372 260.966 6.65234 260.634 6.65234Z" fill="#15E3B5"/>
<rect x="137.5" y="54.5" width="135" height="17" rx="3.5" stroke="#C4C4C4"/>
<path d="M145.425 67L143.354 61.0381H143.315C143.371 61.9235 143.398 62.7536 143.398 63.5283V67H142.339V59.8613H143.984L145.967 65.54H145.996L148.037 59.8613H149.688V67H148.564V63.4697C148.564 63.1149 148.573 62.6527 148.589 62.083C148.608 61.5133 148.625 61.1683 148.638 61.0479H148.599L146.455 67H145.425ZM153.804 67.0977C152.964 67.0977 152.306 66.8535 151.831 66.3652C151.359 65.8737 151.123 65.1982 151.123 64.3389C151.123 63.4567 151.343 62.7633 151.782 62.2588C152.222 61.7542 152.826 61.502 153.594 61.502C154.307 61.502 154.87 61.7184 155.283 62.1514C155.697 62.5843 155.903 63.18 155.903 63.9385V64.5586H152.305C152.321 65.0827 152.463 65.4863 152.729 65.7695C152.996 66.0495 153.372 66.1895 153.857 66.1895C154.176 66.1895 154.473 66.1602 154.746 66.1016C155.023 66.0397 155.319 65.9388 155.635 65.7988V66.7314C155.355 66.8649 155.072 66.9593 154.785 67.0146C154.499 67.07 154.172 67.0977 153.804 67.0977ZM153.594 62.3711C153.229 62.3711 152.936 62.4867 152.715 62.7178C152.497 62.9489 152.367 63.2858 152.324 63.7285H154.775C154.769 63.2826 154.661 62.9456 154.453 62.7178C154.245 62.4867 153.958 62.3711 153.594 62.3711ZM159.028 67.0977C158.354 67.0977 157.829 66.8535 157.451 66.3652C157.074 65.877 156.885 65.1917 156.885 64.3096C156.885 63.4242 157.075 62.7357 157.456 62.2441C157.84 61.7493 158.371 61.502 159.048 61.502C159.757 61.502 160.298 61.764 160.669 62.2881H160.728C160.672 61.9007 160.645 61.5947 160.645 61.3701V59.4023H161.797V67H160.898L160.698 66.292H160.645C160.277 66.8291 159.738 67.0977 159.028 67.0977ZM159.336 66.1699C159.808 66.1699 160.151 66.0381 160.366 65.7744C160.581 65.5075 160.692 65.0762 160.698 64.4805V64.3193C160.698 63.639 160.588 63.1556 160.366 62.8691C160.145 62.5827 159.798 62.4395 159.326 62.4395C158.923 62.4395 158.612 62.6038 158.394 62.9326C158.175 63.2581 158.066 63.7236 158.066 64.3291C158.066 64.9281 158.172 65.3854 158.384 65.7012C158.595 66.0137 158.913 66.1699 159.336 66.1699ZM164.585 67H163.438V61.5996H164.585V67ZM163.369 60.1689C163.369 59.9639 163.424 59.806 163.535 59.6953C163.649 59.5846 163.81 59.5293 164.019 59.5293C164.22 59.5293 164.377 59.5846 164.487 59.6953C164.601 59.806 164.658 59.9639 164.658 60.1689C164.658 60.3643 164.601 60.5189 164.487 60.6328C164.377 60.7435 164.22 60.7988 164.019 60.7988C163.81 60.7988 163.649 60.7435 163.535 60.6328C163.424 60.5189 163.369 60.3643 163.369 60.1689ZM169.609 67L169.38 66.248H169.341C169.08 66.5768 168.818 66.8014 168.555 66.9219C168.291 67.0391 167.952 67.0977 167.539 67.0977C167.008 67.0977 166.593 66.9544 166.294 66.668C165.998 66.3815 165.85 65.9762 165.85 65.4521C165.85 64.8955 166.056 64.4756 166.47 64.1924C166.883 63.9092 167.513 63.7546 168.359 63.7285L169.292 63.6992V63.4111C169.292 63.0661 169.211 62.8089 169.048 62.6396C168.888 62.4671 168.639 62.3809 168.301 62.3809C168.024 62.3809 167.759 62.4215 167.505 62.5029C167.251 62.5843 167.007 62.6803 166.772 62.791L166.401 61.9707C166.694 61.8177 167.015 61.7021 167.363 61.624C167.712 61.5426 168.04 61.502 168.35 61.502C169.036 61.502 169.554 61.6517 169.902 61.9512C170.254 62.2507 170.43 62.721 170.43 63.3623V67H169.609ZM167.9 66.2188C168.317 66.2188 168.651 66.1032 168.901 65.8721C169.155 65.6377 169.282 65.3105 169.282 64.8906V64.4219L168.589 64.4512C168.049 64.4707 167.655 64.5618 167.407 64.7246C167.163 64.8841 167.041 65.1299 167.041 65.4619C167.041 65.7028 167.113 65.89 167.256 66.0234C167.399 66.1536 167.614 66.2188 167.9 66.2188ZM176.782 67H175.63V63.6797C175.63 63.263 175.545 62.9521 175.376 62.7471C175.21 62.542 174.945 62.4395 174.58 62.4395C174.095 62.4395 173.74 62.5827 173.516 62.8691C173.291 63.1556 173.179 63.6357 173.179 64.3096V67H172.031V61.5996H172.93L173.091 62.3076H173.149C173.312 62.0505 173.543 61.8519 173.843 61.7119C174.142 61.5719 174.474 61.502 174.839 61.502C176.134 61.502 176.782 62.1611 176.782 63.4795V67ZM183.965 67H182.817V62.3906C182.817 61.8405 182.83 61.4043 182.856 61.082C182.782 61.1602 182.689 61.2464 182.578 61.3408C182.471 61.4352 182.106 61.7347 181.484 62.2393L180.908 61.5117L183.008 59.8613H183.965V67ZM186.328 63.958C186.328 61.165 187.466 59.7686 189.741 59.7686C190.099 59.7686 190.402 59.7962 190.649 59.8516V60.8086C190.402 60.737 190.116 60.7012 189.79 60.7012C189.025 60.7012 188.451 60.9062 188.066 61.3164C187.682 61.7266 187.474 62.3841 187.441 63.2891H187.5C187.653 63.0254 187.868 62.8219 188.145 62.6787C188.421 62.5322 188.747 62.459 189.121 62.459C189.769 62.459 190.273 62.6576 190.635 63.0547C190.996 63.4518 191.177 63.9906 191.177 64.6709C191.177 65.4196 190.967 66.012 190.547 66.4482C190.13 66.8812 189.561 67.0977 188.838 67.0977C188.327 67.0977 187.882 66.9756 187.505 66.7314C187.127 66.484 186.836 66.126 186.631 65.6572C186.429 65.1852 186.328 64.6188 186.328 63.958ZM188.818 66.1504C189.212 66.1504 189.515 66.0234 189.727 65.7695C189.941 65.5156 190.049 65.1527 190.049 64.6807C190.049 64.2705 189.948 63.9482 189.746 63.7139C189.548 63.4795 189.248 63.3623 188.848 63.3623C188.6 63.3623 188.372 63.416 188.164 63.5234C187.956 63.6276 187.791 63.7725 187.671 63.958C187.55 64.1403 187.49 64.3275 187.49 64.5195C187.49 64.9785 187.614 65.3659 187.861 65.6816C188.112 65.9941 188.431 66.1504 188.818 66.1504ZM196.86 63.4307C196.86 64.6709 196.66 65.5921 196.26 66.1943C195.863 66.7965 195.254 67.0977 194.434 67.0977C193.639 67.0977 193.037 66.7868 192.627 66.165C192.217 65.5433 192.012 64.6318 192.012 63.4307C192.012 62.1709 192.21 61.2432 192.607 60.6475C193.008 60.0485 193.617 59.749 194.434 59.749C195.231 59.749 195.835 60.0615 196.245 60.6865C196.655 61.3115 196.86 62.2262 196.86 63.4307ZM193.174 63.4307C193.174 64.404 193.273 65.099 193.472 65.5156C193.674 65.9323 193.994 66.1406 194.434 66.1406C194.873 66.1406 195.194 65.929 195.396 65.5059C195.601 65.0827 195.703 64.391 195.703 63.4307C195.703 62.4736 195.601 61.7819 195.396 61.3555C195.194 60.9258 194.873 60.7109 194.434 60.7109C193.994 60.7109 193.674 60.9209 193.472 61.3408C193.273 61.7607 193.174 62.4574 193.174 63.4307ZM197.944 66.3896C197.944 66.152 198.006 65.9697 198.13 65.8428C198.254 65.7158 198.433 65.6523 198.667 65.6523C198.905 65.6523 199.085 65.7191 199.209 65.8525C199.333 65.9827 199.395 66.1618 199.395 66.3896C199.395 66.6208 199.331 66.8047 199.204 66.9414C199.08 67.0749 198.901 67.1416 198.667 67.1416C198.433 67.1416 198.254 67.0749 198.13 66.9414C198.006 66.8079 197.944 66.624 197.944 66.3896ZM203.857 67H202.71V62.3906C202.71 61.8405 202.723 61.4043 202.749 61.082C202.674 61.1602 202.581 61.2464 202.471 61.3408C202.363 61.4352 201.999 61.7347 201.377 62.2393L200.801 61.5117L202.9 59.8613H203.857V67ZM211.294 65.4424H210.332V67H209.214V65.4424H205.952V64.5586L209.214 59.8418H210.332V64.4902H211.294V65.4424ZM209.214 64.4902V62.6982C209.214 62.0602 209.23 61.5378 209.263 61.1309H209.224C209.132 61.3457 208.989 61.6061 208.794 61.9121L207.021 64.4902H209.214ZM216.753 63.4307C216.753 64.6709 216.553 65.5921 216.152 66.1943C215.755 66.7965 215.146 67.0977 214.326 67.0977C213.532 67.0977 212.93 66.7868 212.52 66.165C212.109 65.5433 211.904 64.6318 211.904 63.4307C211.904 62.1709 212.103 61.2432 212.5 60.6475C212.9 60.0485 213.509 59.749 214.326 59.749C215.124 59.749 215.728 60.0615 216.138 60.6865C216.548 61.3115 216.753 62.2262 216.753 63.4307ZM213.066 63.4307C213.066 64.404 213.166 65.099 213.364 65.5156C213.566 65.9323 213.887 66.1406 214.326 66.1406C214.766 66.1406 215.086 65.929 215.288 65.5059C215.493 65.0827 215.596 64.391 215.596 63.4307C215.596 62.4736 215.493 61.7819 215.288 61.3555C215.086 60.9258 214.766 60.7109 214.326 60.7109C213.887 60.7109 213.566 60.9209 213.364 61.3408C213.166 61.7607 213.066 62.4574 213.066 63.4307ZM222.466 63.4307C222.466 64.6709 222.266 65.5921 221.865 66.1943C221.468 66.7965 220.859 67.0977 220.039 67.0977C219.245 67.0977 218.643 66.7868 218.232 66.165C217.822 65.5433 217.617 64.6318 217.617 63.4307C217.617 62.1709 217.816 61.2432 218.213 60.6475C218.613 60.0485 219.222 59.749 220.039 59.749C220.837 59.749 221.44 60.0615 221.851 60.6865C222.261 61.3115 222.466 62.2262 222.466 63.4307ZM218.779 63.4307C218.779 64.404 218.879 65.099 219.077 65.5156C219.279 65.9323 219.6 66.1406 220.039 66.1406C220.479 66.1406 220.799 65.929 221.001 65.5059C221.206 65.0827 221.309 64.391 221.309 63.4307C221.309 62.4736 221.206 61.7819 221.001 61.3555C220.799 60.9258 220.479 60.7109 220.039 60.7109C219.6 60.7109 219.279 60.9209 219.077 61.3408C218.879 61.7607 218.779 62.4574 218.779 63.4307ZM228.179 63.4307C228.179 64.6709 227.979 65.5921 227.578 66.1943C227.181 66.7965 226.572 67.0977 225.752 67.0977C224.958 67.0977 224.355 66.7868 223.945 66.165C223.535 65.5433 223.33 64.6318 223.33 63.4307C223.33 62.1709 223.529 61.2432 223.926 60.6475C224.326 60.0485 224.935 59.749 225.752 59.749C226.549 59.749 227.153 60.0615 227.563 60.6865C227.974 61.3115 228.179 62.2262 228.179 63.4307ZM224.492 63.4307C224.492 64.404 224.591 65.099 224.79 65.5156C224.992 65.9323 225.312 66.1406 225.752 66.1406C226.191 66.1406 226.512 65.929 226.714 65.5059C226.919 65.0827 227.021 64.391 227.021 63.4307C227.021 62.4736 226.919 61.7819 226.714 61.3555C226.512 60.9258 226.191 60.7109 225.752 60.7109C225.312 60.7109 224.992 60.9209 224.79 61.3408C224.591 61.7607 224.492 62.4574 224.492 63.4307ZM233.892 63.4307C233.892 64.6709 233.691 65.5921 233.291 66.1943C232.894 66.7965 232.285 67.0977 231.465 67.0977C230.671 67.0977 230.068 66.7868 229.658 66.165C229.248 65.5433 229.043 64.6318 229.043 63.4307C229.043 62.1709 229.242 61.2432 229.639 60.6475C230.039 60.0485 230.648 59.749 231.465 59.749C232.262 59.749 232.866 60.0615 233.276 60.6865C233.687 61.3115 233.892 62.2262 233.892 63.4307ZM230.205 63.4307C230.205 64.404 230.304 65.099 230.503 65.5156C230.705 65.9323 231.025 66.1406 231.465 66.1406C231.904 66.1406 232.225 65.929 232.427 65.5059C232.632 65.0827 232.734 64.391 232.734 63.4307C232.734 62.4736 232.632 61.7819 232.427 61.3555C232.225 60.9258 231.904 60.7109 231.465 60.7109C231.025 60.7109 230.705 60.9209 230.503 61.3408C230.304 61.7607 230.205 62.4574 230.205 63.4307ZM239.604 63.4307C239.604 64.6709 239.404 65.5921 239.004 66.1943C238.607 66.7965 237.998 67.0977 237.178 67.0977C236.383 67.0977 235.781 66.7868 235.371 66.165C234.961 65.5433 234.756 64.6318 234.756 63.4307C234.756 62.1709 234.954 61.2432 235.352 60.6475C235.752 60.0485 236.361 59.749 237.178 59.749C237.975 59.749 238.579 60.0615 238.989 60.6865C239.399 61.3115 239.604 62.2262 239.604 63.4307ZM235.918 63.4307C235.918 64.404 236.017 65.099 236.216 65.5156C236.418 65.9323 236.738 66.1406 237.178 66.1406C237.617 66.1406 237.938 65.929 238.14 65.5059C238.345 65.0827 238.447 64.391 238.447 63.4307C238.447 62.4736 238.345 61.7819 238.14 61.3555C237.938 60.9258 237.617 60.7109 237.178 60.7109C236.738 60.7109 236.418 60.9209 236.216 61.3408C236.017 61.7607 235.918 62.4574 235.918 63.4307ZM245.317 63.4307C245.317 64.6709 245.117 65.5921 244.717 66.1943C244.32 66.7965 243.711 67.0977 242.891 67.0977C242.096 67.0977 241.494 66.7868 241.084 66.165C240.674 65.5433 240.469 64.6318 240.469 63.4307C240.469 62.1709 240.667 61.2432 241.064 60.6475C241.465 60.0485 242.074 59.749 242.891 59.749C243.688 59.749 244.292 60.0615 244.702 60.6865C245.112 61.3115 245.317 62.2262 245.317 63.4307ZM241.631 63.4307C241.631 64.404 241.73 65.099 241.929 65.5156C242.131 65.9323 242.451 66.1406 242.891 66.1406C243.33 66.1406 243.651 65.929 243.853 65.5059C244.058 65.0827 244.16 64.391 244.16 63.4307C244.16 62.4736 244.058 61.7819 243.853 61.3555C243.651 60.9258 243.33 60.7109 242.891 60.7109C242.451 60.7109 242.131 60.9209 241.929 61.3408C241.73 61.7607 241.631 62.4574 241.631 63.4307ZM251.03 63.4307C251.03 64.6709 250.83 65.5921 250.43 66.1943C250.033 66.7965 249.424 67.0977 248.604 67.0977C247.809 67.0977 247.207 66.7868 246.797 66.165C246.387 65.5433 246.182 64.6318 246.182 63.4307C246.182 62.1709 246.38 61.2432 246.777 60.6475C247.178 60.0485 247.786 59.749 248.604 59.749C249.401 59.749 250.005 60.0615 250.415 60.6865C250.825 61.3115 251.03 62.2262 251.03 63.4307ZM247.344 63.4307C247.344 64.404 247.443 65.099 247.642 65.5156C247.843 65.9323 248.164 66.1406 248.604 66.1406C249.043 66.1406 249.364 65.929 249.565 65.5059C249.771 65.0827 249.873 64.391 249.873 63.4307C249.873 62.4736 249.771 61.7819 249.565 61.3555C249.364 60.9258 249.043 60.7109 248.604 60.7109C248.164 60.7109 247.843 60.9209 247.642 61.3408C247.443 61.7607 247.344 62.4574 247.344 63.4307ZM256.743 63.4307C256.743 64.6709 256.543 65.5921 256.143 66.1943C255.745 66.7965 255.137 67.0977 254.316 67.0977C253.522 67.0977 252.92 66.7868 252.51 66.165C252.1 65.5433 251.895 64.6318 251.895 63.4307C251.895 62.1709 252.093 61.2432 252.49 60.6475C252.891 60.0485 253.499 59.749 254.316 59.749C255.114 59.749 255.718 60.0615 256.128 60.6865C256.538 61.3115 256.743 62.2262 256.743 63.4307ZM253.057 63.4307C253.057 64.404 253.156 65.099 253.354 65.5156C253.556 65.9323 253.877 66.1406 254.316 66.1406C254.756 66.1406 255.076 65.929 255.278 65.5059C255.483 65.0827 255.586 64.391 255.586 63.4307C255.586 62.4736 255.483 61.7819 255.278 61.3555C255.076 60.9258 254.756 60.7109 254.316 60.7109C253.877 60.7109 253.556 60.9209 253.354 61.3408C253.156 61.7607 253.057 62.4574 253.057 63.4307ZM262.456 63.4307C262.456 64.6709 262.256 65.5921 261.855 66.1943C261.458 66.7965 260.85 67.0977 260.029 67.0977C259.235 67.0977 258.633 66.7868 258.223 66.165C257.812 65.5433 257.607 64.6318 257.607 63.4307C257.607 62.1709 257.806 61.2432 258.203 60.6475C258.604 60.0485 259.212 59.749 260.029 59.749C260.827 59.749 261.431 60.0615 261.841 60.6865C262.251 61.3115 262.456 62.2262 262.456 63.4307ZM258.77 63.4307C258.77 64.404 258.869 65.099 259.067 65.5156C259.269 65.9323 259.59 66.1406 260.029 66.1406C260.469 66.1406 260.789 65.929 260.991 65.5059C261.196 65.0827 261.299 64.391 261.299 63.4307C261.299 62.4736 261.196 61.7819 260.991 61.3555C260.789 60.9258 260.469 60.7109 260.029 60.7109C259.59 60.7109 259.269 60.9209 259.067 61.3408C258.869 61.7607 258.77 62.4574 258.77 63.4307ZM268.169 63.4307C268.169 64.6709 267.969 65.5921 267.568 66.1943C267.171 66.7965 266.562 67.0977 265.742 67.0977C264.948 67.0977 264.346 66.7868 263.936 66.165C263.525 65.5433 263.32 64.6318 263.32 63.4307C263.32 62.1709 263.519 61.2432 263.916 60.6475C264.316 60.0485 264.925 59.749 265.742 59.749C266.54 59.749 267.144 60.0615 267.554 60.6865C267.964 61.3115 268.169 62.2262 268.169 63.4307ZM264.482 63.4307C264.482 64.404 264.582 65.099 264.78 65.5156C264.982 65.9323 265.303 66.1406 265.742 66.1406C266.182 66.1406 266.502 65.929 266.704 65.5059C266.909 65.0827 267.012 64.391 267.012 63.4307C267.012 62.4736 266.909 61.7819 266.704 61.3555C266.502 60.9258 266.182 60.7109 265.742 60.7109C265.303 60.7109 264.982 60.9209 264.78 61.3408C264.582 61.7607 264.482 62.4574 264.482 63.4307Z" fill="#C4C4C4"/>
<path d="M6.85156 43.7686C7.52865 43.7686 8.06413 43.9248 8.45801 44.2373C8.85189 44.5465 9.04883 44.9616 9.04883 45.4824C9.04883 46.2148 8.60938 46.7975 7.73047 47.2305C8.29036 47.5104 8.6875 47.805 8.92188 48.1143C9.15951 48.4235 9.27832 48.7686 9.27832 49.1494C9.27832 49.7386 9.06185 50.2106 8.62891 50.5654C8.19596 50.9202 7.61003 51.0977 6.87109 51.0977C6.09635 51.0977 5.49577 50.9316 5.06934 50.5996C4.6429 50.2676 4.42969 49.7972 4.42969 49.1885C4.42969 48.7913 4.54036 48.4349 4.76172 48.1191C4.98633 47.8001 5.35254 47.5169 5.86035 47.2695C5.42415 47.0091 5.11328 46.734 4.92773 46.4443C4.74219 46.1546 4.64941 45.8291 4.64941 45.4678C4.64941 44.9502 4.85286 44.5384 5.25977 44.2324C5.66667 43.9232 6.19727 43.7686 6.85156 43.7686ZM5.52832 49.1494C5.52832 49.488 5.64714 49.7516 5.88477 49.9404C6.1224 50.126 6.44466 50.2188 6.85156 50.2188C7.27148 50.2188 7.59701 50.1227 7.82812 49.9307C8.0625 49.7354 8.17969 49.4717 8.17969 49.1396C8.17969 48.876 8.07227 48.6351 7.85742 48.417C7.64258 48.1989 7.31706 47.9971 6.88086 47.8115L6.73926 47.748C6.30957 47.9368 6.00033 48.1452 5.81152 48.373C5.62272 48.5977 5.52832 48.8564 5.52832 49.1494ZM6.8418 44.6523C6.51628 44.6523 6.25423 44.7337 6.05566 44.8965C5.8571 45.056 5.75781 45.2741 5.75781 45.5508C5.75781 45.7201 5.79362 45.8714 5.86523 46.0049C5.93685 46.1383 6.04102 46.2604 6.17773 46.3711C6.31445 46.4785 6.54557 46.6087 6.87109 46.7617C7.26172 46.5892 7.53678 46.4085 7.69629 46.2197C7.85905 46.0277 7.94043 45.8047 7.94043 45.5508C7.94043 45.2741 7.83952 45.056 7.6377 44.8965C7.43913 44.7337 7.17383 44.6523 6.8418 44.6523ZM14.7227 45.502C14.7227 45.9544 14.5908 46.332 14.3271 46.6348C14.0635 46.9342 13.6924 47.1361 13.2139 47.2402V47.2793C13.7868 47.3509 14.2165 47.5299 14.5029 47.8164C14.7894 48.0996 14.9326 48.4772 14.9326 48.9492C14.9326 49.6361 14.6901 50.1667 14.2051 50.541C13.7201 50.9121 13.0299 51.0977 12.1348 51.0977C11.3438 51.0977 10.6764 50.9691 10.1328 50.7119V49.6914C10.4355 49.8411 10.7562 49.9567 11.0947 50.0381C11.4333 50.1195 11.7588 50.1602 12.0713 50.1602C12.6247 50.1602 13.0381 50.0576 13.3115 49.8525C13.585 49.6475 13.7217 49.3301 13.7217 48.9004C13.7217 48.5195 13.5703 48.2396 13.2676 48.0605C12.9648 47.8815 12.4896 47.792 11.8418 47.792H11.2217V46.8594H11.8516C12.9909 46.8594 13.5605 46.4655 13.5605 45.6777C13.5605 45.3717 13.4613 45.1357 13.2627 44.9697C13.0641 44.8037 12.7712 44.7207 12.3838 44.7207C12.1136 44.7207 11.8532 44.7598 11.6025 44.8379C11.3519 44.9128 11.0557 45.0609 10.7139 45.2822L10.1523 44.4814C10.8066 43.9997 11.5667 43.7588 12.4326 43.7588C13.152 43.7588 13.7135 43.9134 14.1172 44.2227C14.5208 44.5319 14.7227 44.9583 14.7227 45.502ZM16.0752 50.3896C16.0752 50.152 16.137 49.9697 16.2607 49.8428C16.3844 49.7158 16.5635 49.6523 16.7979 49.6523C17.0355 49.6523 17.2161 49.7191 17.3398 49.8525C17.4635 49.9827 17.5254 50.1618 17.5254 50.3896C17.5254 50.6208 17.4619 50.8047 17.335 50.9414C17.2113 51.0749 17.0322 51.1416 16.7979 51.1416C16.5635 51.1416 16.3844 51.0749 16.2607 50.9414C16.137 50.8079 16.0752 50.624 16.0752 50.3896ZM21.0312 43.7686C21.7083 43.7686 22.2438 43.9248 22.6377 44.2373C23.0316 44.5465 23.2285 44.9616 23.2285 45.4824C23.2285 46.2148 22.7891 46.7975 21.9102 47.2305C22.4701 47.5104 22.8672 47.805 23.1016 48.1143C23.3392 48.4235 23.458 48.7686 23.458 49.1494C23.458 49.7386 23.2415 50.2106 22.8086 50.5654C22.3757 50.9202 21.7897 51.0977 21.0508 51.0977C20.276 51.0977 19.6755 50.9316 19.249 50.5996C18.8226 50.2676 18.6094 49.7972 18.6094 49.1885C18.6094 48.7913 18.7201 48.4349 18.9414 48.1191C19.166 47.8001 19.5322 47.5169 20.04 47.2695C19.6038 47.0091 19.293 46.734 19.1074 46.4443C18.9219 46.1546 18.8291 45.8291 18.8291 45.4678C18.8291 44.9502 19.0326 44.5384 19.4395 44.2324C19.8464 43.9232 20.377 43.7686 21.0312 43.7686ZM19.708 49.1494C19.708 49.488 19.8268 49.7516 20.0645 49.9404C20.3021 50.126 20.6243 50.2188 21.0312 50.2188C21.4512 50.2188 21.7767 50.1227 22.0078 49.9307C22.2422 49.7354 22.3594 49.4717 22.3594 49.1396C22.3594 48.876 22.252 48.6351 22.0371 48.417C21.8223 48.1989 21.4967 47.9971 21.0605 47.8115L20.9189 47.748C20.4893 47.9368 20.18 48.1452 19.9912 48.373C19.8024 48.5977 19.708 48.8564 19.708 49.1494ZM21.0215 44.6523C20.696 44.6523 20.4339 44.7337 20.2354 44.8965C20.0368 45.056 19.9375 45.2741 19.9375 45.5508C19.9375 45.7201 19.9733 45.8714 20.0449 46.0049C20.1165 46.1383 20.2207 46.2604 20.3574 46.3711C20.4941 46.4785 20.7253 46.6087 21.0508 46.7617C21.4414 46.5892 21.7165 46.4085 21.876 46.2197C22.0387 46.0277 22.1201 45.8047 22.1201 45.5508C22.1201 45.2741 22.0192 45.056 21.8174 44.8965C21.6188 44.7337 21.3535 44.6523 21.0215 44.6523ZM28.9023 45.502C28.9023 45.9544 28.7705 46.332 28.5068 46.6348C28.2432 46.9342 27.8721 47.1361 27.3936 47.2402V47.2793C27.9665 47.3509 28.3962 47.5299 28.6826 47.8164C28.9691 48.0996 29.1123 48.4772 29.1123 48.9492C29.1123 49.6361 28.8698 50.1667 28.3848 50.541C27.8997 50.9121 27.2096 51.0977 26.3145 51.0977C25.5234 51.0977 24.8561 50.9691 24.3125 50.7119V49.6914C24.6152 49.8411 24.9359 49.9567 25.2744 50.0381C25.613 50.1195 25.9385 50.1602 26.251 50.1602C26.8044 50.1602 27.2178 50.0576 27.4912 49.8525C27.7646 49.6475 27.9014 49.3301 27.9014 48.9004C27.9014 48.5195 27.75 48.2396 27.4473 48.0605C27.1445 47.8815 26.6693 47.792 26.0215 47.792H25.4014V46.8594H26.0312C27.1706 46.8594 27.7402 46.4655 27.7402 45.6777C27.7402 45.3717 27.641 45.1357 27.4424 44.9697C27.2438 44.8037 26.9508 44.7207 26.5635 44.7207C26.2933 44.7207 26.0329 44.7598 25.7822 44.8379C25.5316 44.9128 25.2354 45.0609 24.8936 45.2822L24.332 44.4814C24.9863 43.9997 25.7464 43.7588 26.6123 43.7588C27.3317 43.7588 27.8932 43.9134 28.2969 44.2227C28.7005 44.5319 28.9023 44.9583 28.9023 45.502Z" fill="#C4C4C4" fill-opacity="0.5"/>
<path d="M247.146 51H245.975V47.7822H242.684V51H241.517V43.8613H242.684V46.7812H245.975V43.8613H247.146V51ZM254.49 51H253.343V46.3906C253.343 45.8405 253.356 45.4043 253.382 45.082C253.307 45.1602 253.214 45.2464 253.104 45.3408C252.996 45.4352 252.632 45.7347 252.01 46.2393L251.434 45.5117L253.533 43.8613H254.49V51ZM259.246 43.7686C259.923 43.7686 260.459 43.9248 260.853 44.2373C261.246 44.5465 261.443 44.9616 261.443 45.4824C261.443 46.2148 261.004 46.7975 260.125 47.2305C260.685 47.5104 261.082 47.805 261.316 48.1143C261.554 48.4235 261.673 48.7686 261.673 49.1494C261.673 49.7386 261.456 50.2106 261.023 50.5654C260.59 50.9202 260.005 51.0977 259.266 51.0977C258.491 51.0977 257.89 50.9316 257.464 50.5996C257.037 50.2676 256.824 49.7972 256.824 49.1885C256.824 48.7913 256.935 48.4349 257.156 48.1191C257.381 47.8001 257.747 47.5169 258.255 47.2695C257.819 47.0091 257.508 46.734 257.322 46.4443C257.137 46.1546 257.044 45.8291 257.044 45.4678C257.044 44.9502 257.247 44.5384 257.654 44.2324C258.061 43.9232 258.592 43.7686 259.246 43.7686ZM257.923 49.1494C257.923 49.488 258.042 49.7516 258.279 49.9404C258.517 50.126 258.839 50.2188 259.246 50.2188C259.666 50.2188 259.992 50.1227 260.223 49.9307C260.457 49.7354 260.574 49.4717 260.574 49.1396C260.574 48.876 260.467 48.6351 260.252 48.417C260.037 48.1989 259.712 47.9971 259.275 47.8115L259.134 47.748C258.704 47.9368 258.395 48.1452 258.206 48.373C258.017 48.5977 257.923 48.8564 257.923 49.1494ZM259.236 44.6523C258.911 44.6523 258.649 44.7337 258.45 44.8965C258.252 45.056 258.152 45.2741 258.152 45.5508C258.152 45.7201 258.188 45.8714 258.26 46.0049C258.331 46.1383 258.436 46.2604 258.572 46.3711C258.709 46.4785 258.94 46.6087 259.266 46.7617C259.656 46.5892 259.931 46.4085 260.091 46.2197C260.254 46.0277 260.335 45.8047 260.335 45.5508C260.335 45.2741 260.234 45.056 260.032 44.8965C259.834 44.7337 259.568 44.6523 259.236 44.6523ZM267.117 45.502C267.117 45.9544 266.985 46.332 266.722 46.6348C266.458 46.9342 266.087 47.1361 265.608 47.2402V47.2793C266.181 47.3509 266.611 47.5299 266.897 47.8164C267.184 48.0996 267.327 48.4772 267.327 48.9492C267.327 49.6361 267.085 50.1667 266.6 50.541C266.115 50.9121 265.424 51.0977 264.529 51.0977C263.738 51.0977 263.071 50.9691 262.527 50.7119V49.6914C262.83 49.8411 263.151 49.9567 263.489 50.0381C263.828 50.1195 264.153 50.1602 264.466 50.1602C265.019 50.1602 265.433 50.0576 265.706 49.8525C265.979 49.6475 266.116 49.3301 266.116 48.9004C266.116 48.5195 265.965 48.2396 265.662 48.0605C265.359 47.8815 264.884 47.792 264.236 47.792H263.616V46.8594H264.246C265.385 46.8594 265.955 46.4655 265.955 45.6777C265.955 45.3717 265.856 45.1357 265.657 44.9697C265.459 44.8037 265.166 44.7207 264.778 44.7207C264.508 44.7207 264.248 44.7598 263.997 44.8379C263.746 44.9128 263.45 45.0609 263.108 45.2822L262.547 44.4814C263.201 43.9997 263.961 43.7588 264.827 43.7588C265.547 43.7588 266.108 43.9134 266.512 44.2227C266.915 44.5319 267.117 44.9583 267.117 45.502ZM268.47 50.3896C268.47 50.152 268.532 49.9697 268.655 49.8428C268.779 49.7158 268.958 49.6523 269.192 49.6523C269.43 49.6523 269.611 49.7191 269.734 49.8525C269.858 49.9827 269.92 50.1618 269.92 50.3896C269.92 50.6208 269.856 50.8047 269.729 50.9414C269.606 51.0749 269.427 51.1416 269.192 51.1416C268.958 51.1416 268.779 51.0749 268.655 50.9414C268.532 50.8079 268.47 50.624 268.47 50.3896ZM271.824 51L274.646 44.8818H270.936V43.8711H275.872V44.6719L273.064 51H271.824ZM279.148 46.542C279.868 46.542 280.438 46.7324 280.857 47.1133C281.277 47.4941 281.487 48.0133 281.487 48.6709C281.487 49.4326 281.248 50.0283 280.77 50.458C280.294 50.8844 279.617 51.0977 278.738 51.0977C277.941 51.0977 277.314 50.9691 276.858 50.7119V49.6719C277.122 49.8216 277.425 49.9372 277.767 50.0186C278.108 50.0999 278.426 50.1406 278.719 50.1406C279.236 50.1406 279.63 50.0251 279.9 49.7939C280.171 49.5628 280.306 49.2243 280.306 48.7783C280.306 47.9255 279.762 47.499 278.675 47.499C278.522 47.499 278.333 47.5153 278.108 47.5479C277.884 47.5771 277.687 47.6113 277.518 47.6504L277.005 47.3477L277.278 43.8613H280.989V44.8818H278.289L278.128 46.6494C278.242 46.6299 278.38 46.6071 278.543 46.5811C278.709 46.555 278.911 46.542 279.148 46.542Z" fill="#C4C4C4" fill-opacity="0.5"/>
<line x1="0.5" y1="31.5" x2="0.499999" y2="49.5" stroke="#C4C4C4" stroke-opacity="0.5" stroke-linecap="round"/>
<line x1="2.5" y1="31.5" x2="2.5" y2="40.5" stroke="#C4C4C4" stroke-opacity="0.5" stroke-linecap="round"/>
<line x1="4.5" y1="31.5" x2="4.5" y2="40.5" stroke="#C4C4C4" stroke-opacity="0.5" stroke-linecap="round"/>
<line x1="6.5" y1="31.5" x2="6.5" y2="40.5" stroke="#C4C4C4" stroke-opacity="0.5" stroke-linecap="round"/>
<line x1="8.5" y1="31.5" x2="8.5" y2="40.5" stroke="#C4C4C4" stroke-opacity="0.5" stroke-linecap="round"/>
<line x1="10.5" y1="31.5" x2="10.5" y2="40.5" stroke="#C4C4C4" stroke-opacity="0.5" stroke-linecap="round"/>
<line x1="12.5" y1="31.5" x2="12.5" y2="40.5" stroke="#C4C4C4" stroke-opacity="0.5" stroke-linecap="round"/>
<line x1="14.5" y1="31.5" x2="14.5" y2="40.5" stroke="#C4C4C4" stroke-opacity="0.5" stroke-linecap="round"/>
<line x1="16.5" y1="31.5" x2="16.5" y2="40.5" stroke="#C4C4C4" stroke-opacity="0.5" stroke-linecap="round"/>
<line x1="18.5" y1="31.5" x2="18.5" y2="40.5" stroke="#C4C4C4" stroke-opacity="0.5" stroke-linecap="round"/>
<line x1="20.5" y1="31.5" x2="20.5" y2="40.5" stroke="#C4C4C4" stroke-opacity="0.5" stroke-linecap="round"/>
<line x1="22.5" y1="31.5" x2="22.5" y2="40.5" stroke="#C4C4C4" stroke-opacity="0.5" stroke-linecap="round"/>
<line x1="24.5" y1="31.5" x2="24.5" y2="40.5" stroke="#C4C4C4" stroke-opacity="0.5" stroke-linecap="round"/>
<line x1="26.5" y1="31.5" x2="26.5" y2="40.5" stroke="#C4C4C4" stroke-opacity="0.5" stroke-linecap="round"/>
<line x1="28.5" y1="31.5" x2="28.5" y2="40.5" stroke="#C4C4C4" stroke-opacity="0.5" stroke-linecap="round"/>
<line x1="30.5" y1="31.5" x2="30.5" y2="40.5" stroke="#C4C4C4" stroke-opacity="0.5" stroke-linecap="round"/>
<line x1="32.5" y1="31.5" x2="32.5" y2="40.5" stroke="#C4C4C4" stroke-opacity="0.5" stroke-linecap="round"/>
<line x1="34.5" y1="31.5" x2="34.5" y2="40.5" stroke="#C4C4C4" stroke-opacity="0.5" stroke-linecap="round"/>
<line x1="36.5" y1="31.5" x2="36.5" y2="40.5" stroke="#C4C4C4" stroke-opacity="0.5" stroke-linecap="round"/>
<line x1="38.5" y1="31.5" x2="38.5" y2="40.5" stroke="#C4C4C4" stroke-opacity="0.5" stroke-linecap="round"/>
<line x1="40.5" y1="31.5" x2="40.5" y2="40.5" stroke="#C4C4C4" stroke-opacity="0.5" stroke-linecap="round"/>
<line x1="42.5" y1="31.5" x2="42.5" y2="40.5" stroke="#C4C4C4" stroke-opacity="0.5" stroke-linecap="round"/>
<line x1="44.5" y1="31.5" x2="44.5" y2="40.5" stroke="#C4C4C4" stroke-opacity="0.5" stroke-linecap="round"/>
<line x1="46.5" y1="31.5" x2="46.5" y2="40.5" stroke="#C4C4C4" stroke-opacity="0.5" stroke-linecap="round"/>
<line x1="48.5" y1="31.5" x2="48.5" y2="40.5" stroke="#C4C4C4" stroke-opacity="0.5" stroke-linecap="round"/>
<line x1="50.5" y1="31.5" x2="50.5" y2="40.5" stroke="#C4C4C4" stroke-opacity="0.5" stroke-linecap="round"/>
<line x1="52.5" y1="31.5" x2="52.5" y2="40.5" stroke="#C4C4C4" stroke-opacity="0.5" stroke-linecap="round"/>
<line x1="54.5" y1="31.5" x2="54.5" y2="40.5" stroke="#C4C4C4" stroke-opacity="0.5" stroke-linecap="round"/>
<line x1="56.5" y1="31.5" x2="56.5" y2="40.5" stroke="#C4C4C4" stroke-opacity="0.5" stroke-linecap="round"/>
<line x1="58.5" y1="31.5" x2="58.5" y2="40.5" stroke="#C4C4C4" stroke-opacity="0.5" stroke-linecap="round"/>
<line x1="60.5" y1="31.5" x2="60.5" y2="40.5" stroke="#C4C4C4" stroke-opacity="0.5" stroke-linecap="round"/>
<line x1="62.5" y1="31.5" x2="62.5" y2="40.5" stroke="#C4C4C4" stroke-opacity="0.5" stroke-linecap="round"/>
<line x1="64.5" y1="31.5" x2="64.5" y2="40.5" stroke="#C4C4C4" stroke-opacity="0.5" stroke-linecap="round"/>
<line x1="66.5" y1="31.5" x2="66.5" y2="40.5" stroke="#C4C4C4" stroke-opacity="0.5" stroke-linecap="round"/>
<line x1="68.5" y1="31.5" x2="68.5" y2="40.5" stroke="#C4C4C4" stroke-opacity="0.5" stroke-linecap="round"/>
<line x1="70.5" y1="31.5" x2="70.5" y2="40.5" stroke="#C4C4C4" stroke-opacity="0.5" stroke-linecap="round"/>
<line x1="72.5" y1="31.5" x2="72.5" y2="40.5" stroke="#C4C4C4" stroke-opacity="0.5" stroke-linecap="round"/>
<line x1="74.5" y1="31.5" x2="74.5" y2="40.5" stroke="#C4C4C4" stroke-opacity="0.5" stroke-linecap="round"/>
<line x1="76.5" y1="31.5" x2="76.5" y2="40.5" stroke="#C4C4C4" stroke-opacity="0.5" stroke-linecap="round"/>
<line x1="78.5" y1="31.5" x2="78.5" y2="40.5" stroke="#C4C4C4" stroke-opacity="0.5" stroke-linecap="round"/>
<line x1="80.5" y1="31.5" x2="80.5" y2="40.5" stroke="#C4C4C4" stroke-opacity="0.5" stroke-linecap="round"/>
<line x1="82.5" y1="31.5" x2="82.5" y2="40.5" stroke="#C4C4C4" stroke-opacity="0.5" stroke-linecap="round"/>
<line x1="84.5" y1="31.5" x2="84.5" y2="40.5" stroke="#C4C4C4" stroke-opacity="0.5" stroke-linecap="round"/>
<line x1="86.5" y1="31.5" x2="86.5" y2="40.5" stroke="#C4C4C4" stroke-opacity="0.5" stroke-linecap="round"/>
<line x1="88.5" y1="31.5" x2="88.5" y2="40.5" stroke="#C4C4C4" stroke-opacity="0.5" stroke-linecap="round"/>
<line x1="90.5" y1="31.5" x2="90.5" y2="40.5" stroke="#C4C4C4" stroke-opacity="0.5" stroke-linecap="round"/>
<line x1="92.5" y1="31.5" x2="92.5" y2="40.5" stroke="#C4C4C4" stroke-opacity="0.5" stroke-linecap="round"/>
<line x1="94.5" y1="31.5" x2="94.5" y2="40.5" stroke="#C4C4C4" stroke-opacity="0.5" stroke-linecap="round"/>
<line x1="96.5" y1="31.5" x2="96.5" y2="40.5" stroke="#C4C4C4" stroke-opacity="0.5" stroke-linecap="round"/>
<line x1="98.5" y1="31.5" x2="98.5" y2="40.5" stroke="#C4C4C4" stroke-opacity="0.5" stroke-linecap="round"/>
<line x1="100.5" y1="31.5" x2="100.5" y2="40.5" stroke="#C4C4C4" stroke-opacity="0.5" stroke-linecap="round"/>
<line x1="102.5" y1="31.5" x2="102.5" y2="40.5" stroke="#C4C4C4" stroke-opacity="0.5" stroke-linecap="round"/>
<line x1="104.5" y1="31.5" x2="104.5" y2="40.5" stroke="#C4C4C4" stroke-opacity="0.5" stroke-linecap="round"/>
<line x1="106.5" y1="31.5" x2="106.5" y2="40.5" stroke="#C4C4C4" stroke-opacity="0.5" stroke-linecap="round"/>
<line x1="108.5" y1="31.5" x2="108.5" y2="40.5" stroke="#C4C4C4" stroke-opacity="0.5" stroke-linecap="round"/>
<line x1="110.5" y1="31.5" x2="110.5" y2="40.5" stroke="#C4C4C4" stroke-opacity="0.5" stroke-linecap="round"/>
<line x1="112.5" y1="31.5" x2="112.5" y2="40.5" stroke="#C4C4C4" stroke-opacity="0.5" stroke-linecap="round"/>
<line x1="114.5" y1="31.5" x2="114.5" y2="40.5" stroke="#C4C4C4" stroke-opacity="0.5" stroke-linecap="round"/>
<line x1="116.5" y1="31.5" x2="116.5" y2="40.5" stroke="#C4C4C4" stroke-opacity="0.5" stroke-linecap="round"/>
<line x1="118.5" y1="31.5" x2="118.5" y2="40.5" stroke="#C4C4C4" stroke-opacity="0.5" stroke-linecap="round"/>
<line x1="120.5" y1="31.5" x2="120.5" y2="40.5" stroke="#C4C4C4" stroke-opacity="0.5" stroke-linecap="round"/>
<line x1="122.5" y1="31.5" x2="122.5" y2="40.5" stroke="#C4C4C4" stroke-opacity="0.5" stroke-linecap="round"/>
<line x1="124.5" y1="31.5" x2="124.5" y2="40.5" stroke="#C4C4C4" stroke-opacity="0.5" stroke-linecap="round"/>
<line x1="126.5" y1="31.5" x2="126.5" y2="40.5" stroke="#C4C4C4" stroke-opacity="0.5" stroke-linecap="round"/>
<line x1="128.5" y1="31.5" x2="128.5" y2="40.5" stroke="#C4C4C4" stroke-opacity="0.5" stroke-linecap="round"/>
<line x1="130.5" y1="31.5" x2="130.5" y2="40.5" stroke="#C4C4C4" stroke-opacity="0.5" stroke-linecap="round"/>
<line x1="132.5" y1="31.5" x2="132.5" y2="40.5" stroke="#C4C4C4" stroke-opacity="0.5" stroke-linecap="round"/>
<line x1="134.5" y1="31.5" x2="134.5" y2="40.5" stroke="#C4C4C4" stroke-opacity="0.5" stroke-linecap="round"/>
<line x1="136.5" y1="31.5" x2="136.5" y2="40.5" stroke="#C4C4C4" stroke-opacity="0.5" stroke-linecap="round"/>
<line x1="138.5" y1="31.5" x2="138.5" y2="40.5" stroke="#C4C4C4" stroke-opacity="0.5" stroke-linecap="round"/>
<line x1="140.5" y1="31.5" x2="140.5" y2="40.5" stroke="#C4C4C4" stroke-opacity="0.5" stroke-linecap="round"/>
<line x1="142.5" y1="31.5" x2="142.5" y2="40.5" stroke="#C4C4C4" stroke-opacity="0.5" stroke-linecap="round"/>
<line x1="144.5" y1="31.5" x2="144.5" y2="40.5" stroke="#C4C4C4" stroke-opacity="0.5" stroke-linecap="round"/>
<line x1="146.5" y1="31.5" x2="146.5" y2="40.5" stroke="#C4C4C4" stroke-opacity="0.5" stroke-linecap="round"/>
<line x1="148.5" y1="31.5" x2="148.5" y2="40.5" stroke="#C4C4C4" stroke-opacity="0.5" stroke-linecap="round"/>
<line x1="150.5" y1="31.5" x2="150.5" y2="40.5" stroke="#C4C4C4" stroke-opacity="0.5" stroke-linecap="round"/>
<line x1="152.5" y1="31.5" x2="152.5" y2="40.5" stroke="#C4C4C4" stroke-opacity="0.5" stroke-linecap="round"/>
<line x1="154.5" y1="31.5" x2="154.5" y2="40.5" stroke="#C4C4C4" stroke-opacity="0.5" stroke-linecap="round"/>
<line x1="156.5" y1="31.5" x2="156.5" y2="40.5" stroke="#C4C4C4" stroke-opacity="0.5" stroke-linecap="round"/>
<line x1="158.5" y1="31.5" x2="158.5" y2="40.5" stroke="#C4C4C4" stroke-opacity="0.5" stroke-linecap="round"/>
<line x1="160.5" y1="31.5" x2="160.5" y2="40.5" stroke="#C4C4C4" stroke-opacity="0.5" stroke-linecap="round"/>
<line x1="171.5" y1="31.5" x2="171.5" y2="40.5" stroke="#C4C4C4" stroke-opacity="0.5" stroke-linecap="round"/>
<circle cx="166" cy="36" r="3" fill="#BB9E67"/>
<line x1="173.5" y1="31.5" x2="173.5" y2="40.5" stroke="#C4C4C4" stroke-opacity="0.5" stroke-linecap="round"/>
<line x1="175.5" y1="31.5" x2="175.5" y2="40.5" stroke="#C4C4C4" stroke-opacity="0.5" stroke-linecap="round"/>
<line x1="177.5" y1="31.5" x2="177.5" y2="40.5" stroke="#C4C4C4" stroke-opacity="0.5" stroke-linecap="round"/>
<line x1="179.5" y1="31.5" x2="179.5" y2="40.5" stroke="#C4C4C4" stroke-opacity="0.5" stroke-linecap="round"/>
<line x1="181.5" y1="31.5" x2="181.5" y2="40.5" stroke="#C4C4C4" stroke-opacity="0.5" stroke-linecap="round"/>
<line x1="183.5" y1="31.5" x2="183.5" y2="40.5" stroke="#C4C4C4" stroke-opacity="0.5" stroke-linecap="round"/>
<line x1="185.5" y1="31.5" x2="185.5" y2="40.5" stroke="#C4C4C4" stroke-opacity="0.5" stroke-linecap="round"/>
<line x1="187.5" y1="31.5" x2="187.5" y2="40.5" stroke="#C4C4C4" stroke-opacity="0.5" stroke-linecap="round"/>
<line x1="189.5" y1="31.5" x2="189.5" y2="40.5" stroke="#C4C4C4" stroke-opacity="0.5" stroke-linecap="round"/>
<line x1="191.5" y1="31.5" x2="191.5" y2="40.5" stroke="#C4C4C4" stroke-opacity="0.5" stroke-linecap="round"/>
<line x1="193.5" y1="31.5" x2="193.5" y2="40.5" stroke="#C4C4C4" stroke-opacity="0.5" stroke-linecap="round"/>
<line x1="195.5" y1="31.5" x2="195.5" y2="40.5" stroke="#C4C4C4" stroke-opacity="0.5" stroke-linecap="round"/>
<line x1="197.5" y1="31.5" x2="197.5" y2="40.5" stroke="#C4C4C4" stroke-opacity="0.5" stroke-linecap="round"/>
<line x1="199.5" y1="31.5" x2="199.5" y2="54.5" stroke="#C4C4C4" stroke-linecap="round"/>
<line x1="201.5" y1="31.5" x2="201.5" y2="40.5" stroke="#C4C4C4" stroke-opacity="0.5" stroke-linecap="round"/>
<line x1="203.5" y1="31.5" x2="203.5" y2="40.5" stroke="#C4C4C4" stroke-opacity="0.5" stroke-linecap="round"/>
<line x1="205.5" y1="31.5" x2="205.5" y2="40.5" stroke="#C4C4C4" stroke-opacity="0.5" stroke-linecap="round"/>
<line x1="207.5" y1="31.5" x2="207.5" y2="40.5" stroke="#C4C4C4" stroke-opacity="0.5" stroke-linecap="round"/>
<line x1="209.5" y1="31.5" x2="209.5" y2="40.5" stroke="#C4C4C4" stroke-opacity="0.5" stroke-linecap="round"/>
<line x1="211.5" y1="31.5" x2="211.5" y2="40.5" stroke="#C4C4C4" stroke-opacity="0.5" stroke-linecap="round"/>
<line x1="213.5" y1="31.5" x2="213.5" y2="40.5" stroke="#C4C4C4" stroke-opacity="0.5" stroke-linecap="round"/>
<line x1="215.5" y1="31.5" x2="215.5" y2="40.5" stroke="#C4C4C4" stroke-opacity="0.5" stroke-linecap="round"/>
<line x1="217.5" y1="31.5" x2="217.5" y2="40.5" stroke="#C4C4C4" stroke-opacity="0.5" stroke-linecap="round"/>
<line x1="219.5" y1="31.5" x2="219.5" y2="40.5" stroke="#C4C4C4" stroke-opacity="0.5" stroke-linecap="round"/>
<line x1="221.5" y1="31.5" x2="221.5" y2="40.5" stroke="#C4C4C4" stroke-opacity="0.5" stroke-linecap="round"/>
<line x1="223.5" y1="17.5" x2="223.5" y2="40.5" stroke="#15E3B5" stroke-linecap="round"/>
<line x1="225.5" y1="31.5" x2="225.5" y2="40.5" stroke="#C4C4C4" stroke-opacity="0.5" stroke-linecap="round"/>
<line x1="227.5" y1="31.5" x2="227.5" y2="40.5" stroke="#C4C4C4" stroke-opacity="0.5" stroke-linecap="round"/>
<line x1="229.5" y1="31.5" x2="229.5" y2="40.5" stroke="#C4C4C4" stroke-opacity="0.5" stroke-linecap="round"/>
<line x1="231.5" y1="31.5" x2="231.5" y2="40.5" stroke="#C4C4C4" stroke-opacity="0.5" stroke-linecap="round"/>
<line x1="233.5" y1="31.5" x2="233.5" y2="40.5" stroke="#C4C4C4" stroke-opacity="0.5" stroke-linecap="round"/>
<line x1="235.5" y1="31.5" x2="235.5" y2="40.5" stroke="#C4C4C4" stroke-opacity="0.5" stroke-linecap="round"/>
<line x1="237.5" y1="31.5" x2="237.5" y2="40.5" stroke="#C4C4C4" stroke-opacity="0.5" stroke-linecap="round"/>
<line x1="239.5" y1="31.5" x2="239.5" y2="40.5" stroke="#C4C4C4" stroke-opacity="0.5" stroke-linecap="round"/>
<line x1="241.5" y1="31.5" x2="241.5" y2="40.5" stroke="#C4C4C4" stroke-opacity="0.5" stroke-linecap="round"/>
<line x1="243.5" y1="31.5" x2="243.5" y2="40.5" stroke="#C4C4C4" stroke-opacity="0.5" stroke-linecap="round"/>
<line x1="245.5" y1="31.5" x2="245.5" y2="40.5" stroke="#C4C4C4" stroke-opacity="0.5" stroke-linecap="round"/>
<line x1="247.5" y1="31.5" x2="247.5" y2="40.5" stroke="#C4C4C4" stroke-opacity="0.5" stroke-linecap="round"/>
<line x1="249.5" y1="31.5" x2="249.5" y2="40.5" stroke="#C4C4C4" stroke-opacity="0.5" stroke-linecap="round"/>
<line x1="251.5" y1="31.5" x2="251.5" y2="40.5" stroke="#C4C4C4" stroke-opacity="0.5" stroke-linecap="round"/>
<line x1="253.5" y1="31.5" x2="253.5" y2="40.5" stroke="#C4C4C4" stroke-opacity="0.5" stroke-linecap="round"/>
<line x1="255.5" y1="31.5" x2="255.5" y2="40.5" stroke="#C4C4C4" stroke-opacity="0.5" stroke-linecap="round"/>
<line x1="257.5" y1="31.5" x2="257.5" y2="40.5" stroke="#C4C4C4" stroke-opacity="0.5" stroke-linecap="round"/>
<line x1="259.5" y1="31.5" x2="259.5" y2="40.5" stroke="#C4C4C4" stroke-opacity="0.5" stroke-linecap="round"/>
<line x1="261.5" y1="31.5" x2="261.5" y2="40.5" stroke="#C4C4C4" stroke-opacity="0.5" stroke-linecap="round"/>
<line x1="263.5" y1="31.5" x2="263.5" y2="40.5" stroke="#C4C4C4" stroke-opacity="0.5" stroke-linecap="round"/>
<line x1="265.5" y1="31.5" x2="265.5" y2="40.5" stroke="#C4C4C4" stroke-opacity="0.5" stroke-linecap="round"/>
<line x1="267.5" y1="31.5" x2="267.5" y2="40.5" stroke="#C4C4C4" stroke-opacity="0.5" stroke-linecap="round"/>
<line x1="269.5" y1="31.5" x2="269.5" y2="40.5" stroke="#C4C4C4" stroke-opacity="0.5" stroke-linecap="round"/>
<line x1="271.5" y1="31.5" x2="271.5" y2="40.5" stroke="#C4C4C4" stroke-opacity="0.5" stroke-linecap="round"/>
<line x1="273.5" y1="31.5" x2="273.5" y2="40.5" stroke="#C4C4C4" stroke-opacity="0.5" stroke-linecap="round"/>
<line x1="275.5" y1="31.5" x2="275.5" y2="40.5" stroke="#C4C4C4" stroke-opacity="0.5" stroke-linecap="round"/>
<line x1="277.5" y1="31.5" x2="277.5" y2="40.5" stroke="#C4C4C4" stroke-opacity="0.5" stroke-linecap="round"/>
<line x1="279.5" y1="31.5" x2="279.5" y2="40.5" stroke="#C4C4C4" stroke-opacity="0.5" stroke-linecap="round"/>
<line x1="281.5" y1="31.5" x2="281.5" y2="40.5" stroke="#C4C4C4" stroke-opacity="0.5" stroke-linecap="round"/>
<line x1="283.5" y1="31.5" x2="283.5" y2="40.5" stroke="#C4C4C4" stroke-opacity="0.5" stroke-linecap="round"/>
<line x1="285.5" y1="31.5" x2="285.5" y2="49.5" stroke="#C4C4C4" stroke-opacity="0.5" stroke-linecap="round"/>
</svg>
